<svg width="571" height="161" viewBox="0 0 571 161" fill="none" xmlns="http://www.w3.org/2000/svg">
<path d="M20.1122 158H0.446023L57.3267 3.0909H76.6903L133.571 158H113.905L67.6136 27.598H66.4034L20.1122 158ZM27.3736 97.4886H106.643V114.129H27.3736V97.4886ZM157.7 158V3.0909H251.19V19.7315H176.458V72.0739H246.349V88.7145H176.458V141.359H252.4V158H157.7ZM415.705 80.5455C415.705 96.8835 412.755 111.003 406.855 122.903C400.956 134.804 392.862 143.982 382.575 150.436C372.288 156.891 360.539 160.118 347.327 160.118C334.116 160.118 322.366 156.891 312.08 150.436C301.793 143.982 293.699 134.804 287.799 122.903C281.9 111.003 278.95 96.8835 278.95 80.5455C278.95 64.2074 281.9 50.0881 287.799 38.1875C293.699 26.2869 301.793 17.1094 312.08 10.6548C322.366 4.20028 334.116 0.973006 347.327 0.973006C360.539 0.973006 372.288 4.20028 382.575 10.6548C392.862 17.1094 400.956 26.2869 406.855 38.1875C412.755 50.0881 415.705 64.2074 415.705 80.5455ZM397.552 80.5455C397.552 67.1321 395.308 55.8114 390.82 46.5835C386.382 37.3555 380.357 30.3714 372.742 25.6314C365.178 20.8913 356.707 18.5213 347.327 18.5213C337.948 18.5213 329.451 20.8913 321.837 25.6314C314.273 30.3714 308.247 37.3555 303.759 46.5835C299.322 55.8114 297.103 67.1321 297.103 80.5455C297.103 93.9588 299.322 105.279 303.759 114.507C308.247 123.735 314.273 130.719 321.837 135.46C329.451 140.2 337.948 142.57 347.327 142.57C356.707 142.57 365.178 140.2 372.742 135.46C380.357 130.719 386.382 123.735 390.82 114.507C395.308 105.279 397.552 93.9588 397.552 80.5455ZM570.085 3.0909V158H551.931L467.518 36.3722H466.005V158H447.247V3.0909H465.4L550.116 125.021H551.629V3.0909H570.085Z" fill="white"/>
</svg>
